<svg width="32" height="29" viewBox="0 0 32 29" fill="none" xmlns="http://www.w3.org/2000/svg">
<path d="M26.5 4.5H23.04L22.392 2.772C21.884 1.412 20.566 0.5 19.114 0.5H12.886C11.434 0.5 10.118 1.414 9.60995 2.772L8.96195 4.5H5.50195C2.46795 4.5 0.00195312 6.966 0.00195312 10V23C0.00195312 26.034 2.46795 28.5 5.50195 28.5H26.5C29.534 28.5 32 26.034 32 23V10C32 6.966 29.534 4.5 26.5 4.5ZM6.49995 12.5C5.67195 12.5 4.99995 11.828 4.99995 11C4.99995 10.172 5.67195 9.5 6.49995 9.5C7.32795 9.5 7.99995 10.172 7.99995 11C7.99995 11.828 7.32795 12.5 6.49995 12.5ZM16 22.5C12.686 22.5 9.99995 19.814 9.99995 16.5C9.99995 13.186 12.686 10.5 16 10.5C19.314 10.5 22 13.186 22 16.5C22 19.814 19.314 22.5 16 22.5Z" fill="#007AFF"/>
</svg>
