<svg width="22" height="22" viewBox="0 0 22 22" fill="none" xmlns="http://www.w3.org/2000/svg">
<path d="M11 0.758807C16.8013 0.758807 21.5 5.45756 21.5 11.2588C21.4985 15.7701 18.6208 19.7781 14.3473 21.2203C13.8223 21.3253 13.625 20.9968 13.625 20.7216C13.625 20.3668 13.6385 19.2381 13.6385 17.8341C13.6385 16.8501 13.3108 16.2201 12.9298 15.8916C15.266 15.6291 17.7208 14.7366 17.7208 10.7076C17.7208 9.55256 17.3135 8.62031 16.6445 7.88606C16.7495 7.62356 17.117 6.54731 16.5395 5.10356C16.5395 5.10356 15.6598 4.81481 13.652 6.17981C12.812 5.94356 11.9195 5.82581 11.027 5.82581C10.1345 5.82581 9.242 5.94356 8.402 6.17981C6.39425 4.82831 5.5145 5.10356 5.5145 5.10356C4.937 6.54731 5.3045 7.62356 5.4095 7.88606C4.7405 8.62106 4.33325 9.56606 4.33325 10.7076C4.33325 14.7238 6.7745 15.6298 9.11075 15.8923C8.8085 16.1548 8.53325 16.6146 8.441 17.2963C7.83725 17.5723 6.3275 18.0186 5.38325 16.4301C5.186 16.1151 4.59575 15.3411 3.76925 15.3538C2.8895 15.3673 3.41525 15.8526 3.782 16.0491C4.22825 16.2981 4.73975 17.2303 4.85825 17.5326C5.06825 18.1228 5.75075 19.2523 8.3885 18.7663C8.3885 19.6461 8.402 20.4726 8.402 20.7216C8.402 20.9976 8.20475 21.3118 7.67975 21.2203C3.3905 19.7923 0.497751 15.7791 0.500001 11.2581C0.500001 5.45681 5.19875 0.758807 11 0.758807Z" fill="#1C1C1C"/>
</svg>
