<svg width="22" height="22" viewBox="0 0 22 22" fill="none" xmlns="http://www.w3.org/2000/svg">
<path fill-rule="evenodd" clip-rule="evenodd" d="M11 0.5C5.201 0.5 0.5 5.201 0.5 11C0.5 16.799 5.201 21.5 11 21.5C16.799 21.5 21.5 16.799 21.5 11C21.5 5.201 16.799 0.5 11 0.5ZM15.8668 7.64075C15.7085 9.30125 15.0252 13.3302 14.6772 15.1895C14.5302 15.9763 14.24 16.2402 13.9595 16.2657C13.3497 16.322 12.887 15.863 12.296 15.476C11.372 14.87 10.85 14.4927 9.953 13.9017C8.9165 13.2185 9.5885 12.8427 10.1795 12.2292C10.334 12.0688 13.0205 9.62525 13.073 9.40325C13.0798 9.3755 13.0857 9.272 13.0243 9.21725C12.9627 9.1625 12.872 9.18125 12.8068 9.19625C12.7137 9.21725 11.2378 10.193 8.378 12.1235C7.95875 12.4115 7.57925 12.5518 7.2395 12.5443C6.8645 12.536 6.14375 12.332 5.6075 12.158C4.94975 11.9443 4.427 11.831 4.47275 11.468C4.49675 11.279 4.757 11.0855 5.25425 10.8883C8.315 9.55475 10.3565 8.67575 11.3773 8.2505C14.2933 7.03775 14.8993 6.827 15.2938 6.82025C15.3808 6.81875 15.575 6.8405 15.701 6.9425C15.8075 7.02875 15.8367 7.145 15.8502 7.22675C15.8645 7.3085 15.8818 7.4945 15.8675 7.64L15.8668 7.64075Z" fill="#1C1C1C"/>
</svg>
