<svg width="22" height="22" viewBox="0 0 22 22" fill="none" xmlns="http://www.w3.org/2000/svg">
<path d="M20.03 1.97C18.5458 0.5 16.1727 0.5 11.42 0.5H10.58C5.834 0.5 3.461 0.5 1.97 1.97C0.5 3.45425 0.5 5.82725 0.5 10.58V11.42C0.5 16.166 0.5 18.539 1.97 20.03C3.45425 21.5 5.82725 21.5 10.58 21.5H11.42C16.166 21.5 18.539 21.5 20.03 20.03C21.5 18.5458 21.5 16.1727 21.5 11.42V10.58C21.5 5.834 21.5 3.461 20.03 1.97ZM15.5712 15.6268C15.0395 13.9678 13.709 12.68 11.9525 12.5045V15.6268H11.6727C6.88475 15.6268 4.15475 12.3507 4.043 6.89075H6.45125C6.5285 10.895 8.2925 12.5885 9.692 12.9387V6.89075H11.9532V10.3415C13.3325 10.1945 14.7882 8.6195 15.278 6.88325H17.5317C17.1605 8.69975 16.0498 10.28 14.4657 11.2445C16.2343 12.125 17.5415 13.7195 18.0568 15.6268H15.572H15.5712Z" fill="#1C1C1C"/>
</svg>
